<svg height="512pt" viewBox="-82 0 512 512" width="512pt" xmlns="http://www.w3.org/2000/svg"><path d="m227.898438 229.832031h-19.039063c-5.519531 0-10-4.476562-10-10 0-5.523437 4.480469-10 10-10h19.039063c5.523437 0 10 4.476563 10 10 0 5.523438-4.476563 10-10 10zm0 0"/><path d="m139.050781 229.832031h-19.039062c-5.523438 0-10-4.476562-10-10 0-5.523437 4.476562-10 10-10h19.039062c5.523438 0 10 4.476563 10 10 0 5.523438-4.476562 10-10 10zm0 0"/><path d="m334.660156 400.882812c-5.1875-7.777343-11.628906-14.523437-19.152344-20.054687-13.117187-9.636719-28.667968-14.933594-44.976562-15.308594-.617188-.015625-1.25-.027343-1.867188-.027343h-39.855468l-6.269532-30.683594c10.460938-4.679688 20.019532-10.699219 28.441407-17.875l4.527343 6.042968c5.867188 7.824219 15.207032 12.484376 25.007813 12.484376h.125c9.726563-.039063 18.582031-4.503907 24.285156-12.246094.339844-.457032.664063-.921875 1.015625-1.457032l.117188-.179687c1.273437-1.949219 2.828125-3.902344 4.46875-5.976563 2.683594-3.378906 5.453125-6.875 7.726562-11.144531 5.691406-10.695312 6.5-23.84375 2.160156-35.171875-1.195312-3.117187-2.6875-6.019531-4.136718-8.824218-2.453125-4.761719-4.988282-9.683594-3.949219-12.246094.941406-2.328125 2.980469-4.601563 5.347656-7.234375 3.152344-3.511719 6.730469-7.496094 9.042969-13.0625 4.667969-11.230469 3.242188-23.046875-4.007812-33.261719-6.789063-9.578125-18.269532-15.363281-29.996094-15.183594-1.03125.015625-2.058594.097656-3.078125.234375v-35.394531c0-45.09375-31.050781-83.070312-72.898438-93.671875 3.199219-19.101563-4.4375-31.316406-12.125-38.503906-.0625-.066407-.136719-.140625-.21875-.226563-7.429687-7.566406-18.054687-11.910156-29.152343-11.910156-11.101563 0-21.726563 4.34375-29.167969 11.921875-.078125.082031-.148438.15625-.214844.222656-7.585937 7.097657-15.144531 19.125-12.210937 37.890625-43.117188 9.691406-75.421876 48.28125-75.421876 94.277344v35.394531c-1.023437-.140625-2.046874-.21875-3.074218-.234375-.203125-.003906-.410156-.003906-.613282-.003906-11.503906 0-22.714843 5.777344-29.382812 15.183594-7.253906 10.222656-8.679688 22.039062-4.011719 33.261718 2.3125 5.574219 5.886719 9.554688 9.042969 13.066407 2.363281 2.636719 4.40625 4.910156 5.347656 7.238281 1.039063 2.5625-1.5 7.484375-3.949218 12.246094-1.445313 2.804687-2.941407 5.703125-4.140626 8.828125-4.335937 11.324219-3.527343 24.46875 2.164063 35.171875 2.273437 4.261718 5.042969 7.757812 7.726563 11.140625 1.644531 2.070312 3.195312 4.027343 4.441406 5.929687l.117187.179688c.003907.003906.058594.09375.0625.097656.316407.480469.644531.945312.976563 1.398438 5.710937 7.746093 14.5625 12.210937 24.289062 12.25h.128906c9.796876 0 19.136719-4.660157 25.003907-12.484376l4.527343-6.042968c8.421876 7.175781 17.980469 13.195312 28.441407 17.875l-6.269531 30.683594h-39.855469c-16.984375 0-33.183594 5.300781-46.84375 15.335937-20.261719 14.882813-32.355469 38.753906-32.355469 63.855469v57.316406c0 5.523438 4.476562 10 10 10h173.613281c5.523438 0 10-4.476562 10-10s-4.476562-10-10-10h-163.617187v-12.410156c40.226562-2.007813 81.632812-12.292969 120.371094-29.964844 35.890624-16.371094 67.65625-37.933594 94.484374-64.132812h33.8125c.464844 0 .9375.011718 1.402344.023437 12.1875.28125 23.804688 4.230469 33.597656 11.429687 5.636719 4.144532 10.46875 9.203126 14.34375 15.019532 6.449219 9.707031 9.855469 21.023437 9.855469 32.722656v47.3125h-31.429687c-5.523438 0-10 4.476562-10 10s4.476562 10 10 10h41.429687c5.523438 0 10-4.476562 10-10v-57.316406c0-15.644532-4.5625-30.785156-13.203125-43.800782zm-44.960937-200.460937c1.027343-.585937 2.253906-.933594 3.371093-.953125h.273438c5.101562 0 10.082031 2.570312 13.050781 6.757812 3.261719 4.59375 3.867188 9.175782 1.851563 14.023438-1.003906 2.417969-3.0625 4.710938-5.449219 7.367188-3.164063 3.527343-6.753906 7.523437-9.007813 13.097656-4.480468 11.066406.617188 20.960937 4.710938 28.910156 1.257812 2.433594 2.441406 4.734375 3.242188 6.820312 2.261718 5.910157 1.824218 13.042969-1.140626 18.617188-1.417968 2.660156-3.519531 5.308594-5.742187 8.113281-1.851563 2.332031-3.761719 4.742188-5.507813 7.414063l-.132812.199218c-.125.1875-.25.371094-.390625.558594-2.625 3.5625-6.308594 4.109375-8.269531 4.117188-3.617188-.015625-6.902344-1.621094-9.046875-4.484375l-6.382813-8.511719c1.726563-2.121094 3.375-4.3125 4.9375-6.5625 13.078125-18.8125 19.992188-41.546875 19.992188-65.742188 0-1-.148438-1.964843-.421875-2.878906v-26.828125c.019531-.011719.042969-.023437.0625-.035156zm-130.023438-173.816406c.21875-.203125.382813-.363281.585938-.585938l.09375-.097656c3.695312-3.761719 9.121093-5.921875 14.886719-5.921875 5.761718 0 11.1875 2.160156 14.859374 5.898438l.101563.105468c.191406.210938.394531.410156.601563.601563 5.78125 5.320312 7.789062 12.132812 6.144531 21.167969-1.304688-.054688-2.621094-.082032-3.9375-.082032h-38.160157c-.449218 0-.898437.003906-1.34375.011719-1.667968-9.070313.316407-15.714844 6.167969-21.097656zm-81.449219 117.707031c0-42.25 34.371094-76.621094 76.625-76.621094h38.160157c42.25 0 76.625 34.371094 76.625 76.621094v42.332031c-1.617188-6.953125-3.023438-14.777343-4.027344-23.5-1.855469-16.125-15.550781-28.285156-31.851563-28.285156h-119.65625c-16.296874 0-29.988281 12.160156-31.847656 28.285156-.996094 8.644531-2.402344 16.429688-4.027344 23.371094zm-10.921874 171.148438c-1.964844-.007813-5.648438-.550782-8.277344-4.121094-.132813-.179688-.261719-.367188-.347656-.5-.011719-.011719-.074219-.109375-.082032-.121094l-.058594-.085938c-1.773437-2.714843-3.6875-5.125-5.535156-7.457031-2.226562-2.804687-4.324218-5.453125-5.742187-8.113281-2.964844-5.574219-3.402344-12.710938-1.144531-18.609375.804687-2.097656 1.988281-4.394531 3.242187-6.832031 4.097656-7.945313 9.191406-17.839844 4.714844-28.90625-2.257813-5.578125-5.84375-9.574219-9.007813-13.097656-2.386718-2.65625-4.449218-4.953126-5.453125-7.375-2.011719-4.839844-1.40625-9.421876 1.855469-14.019532 3.019531-4.257812 8.125-6.835937 13.328125-6.753906.660156.011719 1.371094.140625 2.058594.371094.453125.152344.910156.269531 1.367187.355468v27.089844c-.273437.914063-.421875 1.878906-.421875 2.882813 0 24.191406 6.914063 46.921875 19.988281 65.738281 1.5625 2.25 3.214844 4.4375 4.941407 6.5625l-6.378907 8.511719c-2.148437 2.863281-5.40625 4.492187-9.046874 4.480469zm64.765624 115.96875c-36.136718 16.480468-74.667968 26.132812-112.074218 28.132812v-14.878906c0-18.761719 9.046875-36.609375 24.199218-47.738282 10.203126-7.492187 22.308594-11.453124 35-11.453124h48.019532c4.753906 0 8.847656-3.34375 9.800781-8l9.476563-46.371094c.867187-4.25-1.105469-8.574219-4.882813-10.710938-.738281-.414062-1.472656-.84375-2.203125-1.277344-.464844-.273437-.949219-.511718-1.453125-.710937-34.65625-13.605469-56.464844-42.628906-59.722656-78.714844 5.375-8.125 19.058593-32.34375 23.890625-74.269531.695312-6.03125 5.847656-10.578125 11.980468-10.578125h119.660157c6.136719 0 11.285156 4.542969 11.976562 10.574219 4.832031 41.929687 18.519531 66.144531 23.894531 74.273437-3.257812 36.085938-25.066406 65.109375-59.726562 78.71875-.503906.195313-.992188.433594-1.453125.710938-.730469.433593-1.464844.859375-2.199219 1.273437-3.777344 2.136719-5.746094 6.460938-4.878906 10.710938l9.476562 46.371094c.167969.824218.433594 1.605468.785157 2.332031-23.136719 20.71875-49.832031 38.042969-79.566407 51.605469zm0 0"/><path d="m175.238281 190.433594c-5.519531 0-10-4.476563-10-10v-8.363282c0-5.519531 4.480469-10 10-10 5.523438 0 10 4.480469 10 10v8.363282c0 5.523437-4.476562 10-10 10zm0 0"/><path d="m241.019531 512c-.648437 0-1.308593-.070312-1.949219-.199219-.640624-.121093-1.269531-.320312-1.871093-.570312-.597657-.25-1.1875-.558594-1.726563-.921875-.550781-.359375-1.0625-.777344-1.523437-1.238282-.457031-.460937-.878907-.96875-1.238281-1.519531-.359376-.539062-.671876-1.121093-.921876-1.730469-.25-.601562-.4375-1.230468-.566406-1.871093s-.199218-1.300781-.199218-1.949219.070312-1.308594.199218-1.949219.316406-1.269531.566406-1.871093c.25-.609376.5625-1.191407.921876-1.730469.359374-.550781.78125-1.058594 1.238281-1.519531.460937-.460938.972656-.878907 1.523437-1.238282.539063-.363281 1.128906-.671875 1.726563-.921875.601562-.25 1.230469-.449219 1.871093-.570312 1.289063-.257813 2.621094-.257813 3.910157 0 .640625.121093 1.261719.320312 1.871093.570312.597657.25 1.179688.558594 1.71875.921875.550782.359375 1.0625.777344 1.53125 1.238282.460938.460937.871094.96875 1.238282 1.519531.359375.539062.671875 1.121093.921875 1.730469.25.601562.4375 1.230468.566406 1.871093.132813.640625.191406 1.300781.191406 1.949219 0 2.628906-1.058593 5.210938-2.917969 7.070312-.472656.460938-.980468.878907-1.53125 1.238282-.539062.363281-1.121093.671875-1.71875.921875-.613281.25-1.230468.449219-1.871093.570312-.652344.128907-1.308594.199219-1.960938.199219zm0 0"/><path d="m174.28125 296.539062c-5.101562 0-10.203125-1.199218-14.851562-3.601562-4.90625-2.535156-6.828126-8.570312-4.292969-13.476562 2.535156-4.90625 8.566406-6.828126 13.472656-4.292969 3.550781 1.835937 7.792969 1.835937 11.34375 0 4.910156-2.535157 10.9375-.613281 13.476563 4.292969 2.535156 4.90625.609374 10.9375-4.296876 13.476562-4.648437 2.402344-9.75 3.601562-14.851562 3.601562zm0 0"/></svg>